<svg xmlns="http://www.w3.org/2000/svg" enable-background="new 0 0 512 512" version="1.1" xml:space="preserve" viewBox="65.7 136.05 380.5 240">

<g fill="#FBB040">
<path class="st0" d="m370.8 205.5h10c2.8 0 5 2.2 5 5v90c0 2.8-2.2 5-5 5h-10c-2.8 0-5-2.2-5-5v-90c0-2.8 2.2-5 5-5z"/>
<path class="st0" d="m425.8 205.5h-24c-3.3 0-6 2.7-6 6v88c0 3.3 2.7 6 6 6h8c3.3 0 6-2.7 6-6v-29c0-2.8 2.2-5 5-5s5 2.2 5 5v44c0 2.3-1.6 4.4-3.9 4.9l-163.9 36.4c-1.4 0.3-2.9 0.3-4.3 0l-181.9-40.4c-2.7-0.6-5.4 1.1-6 3.8-0.1 0.3-0.1 0.7-0.1 1.1v10.2c0 2.3 1.6 4.4 3.9 4.9l181.8 40.2c2.8 0.6 5.8 0.6 8.6 0l178-39.3c4.6-1 7.8-5.1 7.8-9.8v-58.9c0-1.3-0.5-2.6-1.5-3.5l-5-5c-2-2-2-5.1 0-7.1l5-5c0.9-0.9 1.5-2.2 1.5-3.5v-18c0-11.1-9-20-20-20zm-5 40c-2.8 0-5-2.2-5-5v-10c0-2.8 2.2-5 5-5s5 2.2 5 5v10c0 2.7-2.3 5-5 5z"/>
<path class="st0" d="m140.8 205.5h-10c-2.8 0-5 2.2-5 5v90c0 2.8 2.2 5 5 5h40c2.8 0 5-2.2 5-5v-10c0-2.8-2.2-5-5-5h-20c-2.8 0-5-2.2-5-5v-70c0-2.8-2.2-5-5-5z"/>
<path class="st0" d="m200.8 205.5h-10c-2.8 0-5 2.2-5 5v75c0 11 9 20 20 20h10c11 0 20-9 20-20v-75c0-2.8-2.2-5-5-5h-10c-2.8 0-5 2.2-5 5v70c0 2.8-2.2 5-5 5s-5-2.2-5-5v-70c0-2.8-2.2-5-5-5z"/>
<path class="st0" d="m263.3 273.1-10-5.8c-2.4-1.4-5.4-0.6-6.8 1.8-0.4 0.8-0.7 1.6-0.7 2.5v13.8c0 11 9 20 20 20h10c11 0 20-9 20-20v-16.6c0-7.1-3.8-13.7-10-17.3l-17.5-10.1c-1.5-0.9-2.5-2.5-2.5-4.3v-6.7c0-2.8 2.2-5 5-5s5 2.2 5 5v0.7c0 1.8 1 3.4 2.5 4.3l10 5.8c2.4 1.4 5.4 0.6 6.8-1.8 0.4-0.8 0.7-1.6 0.7-2.5v-11.4c0-11-9-20-20-20h-10c-11 0-20 9-20 20v14.5c0 7.1 3.8 13.7 10 17.3l17.5 10.2c1.5 0.9 2.5 2.5 2.5 4.3v8.7c0 2.8-2.2 5-5 5s-5-2.2-5-5v-3c0-1.8-0.9-3.5-2.5-4.4z"/>
<path class="st0" d="m323.3 273.1-10-5.8c-2.4-1.4-5.4-0.6-6.8 1.8-0.4 0.8-0.7 1.6-0.7 2.5v13.8c0 11 9 20 20 20h10c11 0 20-9 20-20v-16.6c0-7.1-3.8-13.7-10-17.3l-17.5-10.1c-1.5-0.9-2.5-2.5-2.5-4.3v-6.7c0-2.8 2.2-5 5-5s5 2.2 5 5v0.7c0 1.8 1 3.4 2.5 4.3l10 5.8c2.4 1.4 5.4 0.6 6.8-1.8 0.4-0.8 0.7-1.6 0.7-2.5v-11.4c0-11-9-20-20-20h-10c-11 0-20 9-20 20v14.5c0 7.1 3.8 13.7 10 17.3l17.5 10.2c1.5 0.9 2.5 2.5 2.5 4.3v8.7c0 2.8-2.2 5-5 5s-5-2.2-5-5v-3c0-1.8-0.9-3.5-2.5-4.4z"/>
<path class="st0" d="m442.4 175.1-182.4-38.6c-2.8-0.6-5.8-0.6-8.6 0l-177.8 39.2c-4.6 1-7.8 5.1-7.8 9.8v115c0 2.8 2.2 5 5 5h10c2.8 0 5-2.2 5-5v-30c0-2.8 2.2-5 5-5s5 2.2 5 5v30c0 2.8 2.2 5 5 5h10c2.8 0 5-2.2 5-5v-32.1c0-1.8-0.7-3.6-2-4.9l-4.4-4.4c-2-2-2-5.1 0-7.1l4.4-4.4c1.3-1.3 2-3.1 2-5v-32.1c0-2.8-2.2-5-5-5h-10c-2.8 0-5 2.2-5 5v30c0 2.8-2.2 5-5 5s-5-2.2-5-5v-43c0-2.3 1.6-4.4 3.9-4.9l163.9-36.4c1.4-0.3 2.9-0.3 4.3 0l182.2 38.8c2.7 0.6 5.4-1.1 6-3.8 0.1-0.4 0.1-0.7 0.1-1.1v-10.1c0.1-2.4-1.6-4.4-3.8-4.9z"/>
</g>
</svg>